<svg width="54" height="33" viewBox="0 0 54 33" fill="none" xmlns="http://www.w3.org/2000/svg">
<path d="M2.875 15.25C2.875 13.5333 3.25833 12 4.025 10.65C4.80833 9.28333 5.86667 8.225 7.2 7.475C8.55 6.70833 10.0583 6.325 11.725 6.325C13.675 6.325 15.3833 6.825 16.85 7.825C18.3167 8.825 19.3417 10.2083 19.925 11.975H15.9C15.5 11.1417 14.9333 10.5167 14.2 10.1C13.4833 9.68333 12.65 9.475 11.7 9.475C10.6833 9.475 9.775 9.71667 8.975 10.2C8.19167 10.6667 7.575 11.3333 7.125 12.2C6.69167 13.0667 6.475 14.0833 6.475 15.25C6.475 16.4 6.69167 17.4167 7.125 18.3C7.575 19.1667 8.19167 19.8417 8.975 20.325C9.775 20.7917 10.6833 21.025 11.7 21.025C12.65 21.025 13.4833 20.8167 14.2 20.4C14.9333 19.9667 15.5 19.3333 15.9 18.5H19.925C19.3417 20.2833 18.3167 21.675 16.85 22.675C15.4 23.6583 13.6917 24.15 11.725 24.15C10.0583 24.15 8.55 23.775 7.2 23.025C5.86667 22.2583 4.80833 21.2 4.025 19.85C3.25833 18.5 2.875 16.9667 2.875 15.25ZM28.5645 24.225C27.2311 24.225 26.0311 23.9333 24.9645 23.35C23.8978 22.75 23.0561 21.9083 22.4395 20.825C21.8395 19.7417 21.5395 18.4917 21.5395 17.075C21.5395 15.6583 21.8478 14.4083 22.4645 13.325C23.0978 12.2417 23.9561 11.4083 25.0395 10.825C26.1228 10.225 27.3311 9.925 28.6645 9.925C29.9978 9.925 31.2061 10.225 32.2895 10.825C33.3728 11.4083 34.2228 12.2417 34.8395 13.325C35.4728 14.4083 35.7895 15.6583 35.7895 17.075C35.7895 18.4917 35.4645 19.7417 34.8145 20.825C34.1811 21.9083 33.3145 22.75 32.2145 23.35C31.1311 23.9333 29.9145 24.225 28.5645 24.225ZM28.5645 21.175C29.1978 21.175 29.7895 21.025 30.3395 20.725C30.9061 20.4083 31.3561 19.9417 31.6895 19.325C32.0228 18.7083 32.1895 17.9583 32.1895 17.075C32.1895 15.7583 31.8395 14.75 31.1395 14.05C30.4561 13.3333 29.6145 12.975 28.6145 12.975C27.6145 12.975 26.7728 13.3333 26.0895 14.05C25.4228 14.75 25.0895 15.7583 25.0895 17.075C25.0895 18.3917 25.4145 19.4083 26.0645 20.125C26.7311 20.825 27.5645 21.175 28.5645 21.175Z" fill="#FF5621"/>
<path d="M46 22C46 23.6569 44.6569 25 43 25C41.3431 25 40 23.6569 40 22C40 20.3431 41.3431 19 43 19C44.6569 19 46 20.3431 46 22Z" fill="#FF5621"/>
<rect x="0.5" y="0.5" width="53" height="32" stroke="black"/>
</svg>
